<?xml version="1.0" encoding="utf-8"?>
<!-- Generator: Adobe Illustrator 23.0.3, SVG Export Plug-In . SVG Version: 6.00 Build 0)  -->
<svg version="1.1" id="Layer_1" xmlns="http://www.w3.org/2000/svg" xmlns:xlink="http://www.w3.org/1999/xlink" x="0px" y="0px"
	 viewBox="0 0 1103.3 439" style="enable-background:new 0 0 1103.3 439;" xml:space="preserve">
<style type="text/css">
	.st0{fill:#0E1A2B;}
	.st1{fill:none;stroke:#00A99D;stroke-width:3.5229;stroke-miterlimit:10;}
	.st2{fill:none;stroke:#4E4E4E;stroke-width:5.2844;stroke-linecap:round;stroke-linejoin:round;stroke-miterlimit:10;}
	.st3{fill:#0E8A7D;}
	.st4{fill:#00A99D;}
	.st5{fill:none;stroke:#4E4E4E;stroke-width:1.7615;stroke-linejoin:round;stroke-miterlimit:10;}
	.st6{fill:#085C52;}
	.st7{fill:none;stroke:#00A99D;stroke-width:1.7615;stroke-miterlimit:10;}
	.st8{fill:none;stroke:#FBB03B;stroke-width:3.5229;stroke-miterlimit:10;}
	.st9{fill:none;stroke:#00A99D;stroke-width:3.5229;stroke-linecap:round;stroke-miterlimit:10;}
	.st10{fill:none;stroke:#00A99D;stroke-width:3.5229;stroke-linecap:round;stroke-linejoin:round;stroke-miterlimit:10;}
	.st11{fill:#DBF1F8;}
	.st12{clip-path:url(#SVGID_2_);fill:#DBF1F8;}
	.st13{fill:none;stroke:#00A99D;stroke-width:3.3699;stroke-miterlimit:10;}
	.st14{fill:none;stroke:#4E4E4E;stroke-width:5.0548;stroke-linecap:round;stroke-linejoin:round;stroke-miterlimit:10;}
	.st15{fill:none;stroke:#4E4E4E;stroke-width:1.6849;stroke-linejoin:round;stroke-miterlimit:10;}
	.st16{fill:none;stroke:#00A99D;stroke-width:1.6849;stroke-miterlimit:10;}
	.st17{fill:none;stroke:#FBB03B;stroke-width:3.3699;stroke-miterlimit:10;}
	.st18{fill:#4E4E4E;}
	.st19{fill:#DBF0F2;}
	.st20{fill:#676767;}
	.st21{fill:none;stroke:#4E4E4E;stroke-width:2.4334;stroke-miterlimit:10;stroke-dasharray:2.4219,1.6146;}
	.st22{fill:#333333;}
	.st23{fill:#5DC5BF;}
	.st24{clip-path:url(#SVGID_4_);fill:#0E8A7D;}
	.st25{clip-path:url(#SVGID_6_);fill:#DBF1F8;}
</style>
<path class="st0" d="M1094.1,429.5H12.5c-2,0-3.7-1.7-3.7-3.7v0c0-2,1.7-3.7,3.7-3.7h1081.5c2,0,3.7,1.7,3.7,3.7v0
	C1097.8,427.8,1096.1,429.5,1094.1,429.5z"/>
<g>
	<g>
		
			<rect x="951.4" y="195.9" transform="matrix(-1 4.488087e-11 -4.488087e-11 -1 1941.2672 584.5748)" class="st1" width="38.5" height="192.8"/>
		<line class="st1" x1="989.9" y1="195.9" x2="951.2" y2="234.5"/>
		<line class="st1" x1="951.2" y1="195.9" x2="989.9" y2="234.5"/>
		<line class="st1" x1="989.9" y1="234.4" x2="951.2" y2="273.1"/>
		<line class="st1" x1="951.2" y1="234.4" x2="989.9" y2="273.1"/>
		<line class="st1" x1="989.9" y1="273" x2="951.2" y2="311.6"/>
		<line class="st1" x1="951.2" y1="273" x2="989.9" y2="311.6"/>
		<line class="st1" x1="989.9" y1="311.5" x2="951.2" y2="350.2"/>
		<line class="st1" x1="951.2" y1="311.5" x2="989.9" y2="350.2"/>
		<line class="st1" x1="989.9" y1="350" x2="951.2" y2="388.7"/>
		<line class="st1" x1="951.2" y1="350" x2="989.9" y2="388.7"/>
	</g>
	<path class="st2" d="M840.5,315.4c0,0.2-0.2,0.2-0.2,0.4c0,4.6-3.8,8.2-8.4,8.2c-4.6,0-8.3-3.7-8.3-8.3c0-4.6,4.1-8.3,8.7-8.3
		c0.1,0-1.1,0,0.7,0v-8.4"/>
	<g>
		
			<rect x="1019.8" y="172.8" transform="matrix(1.820481e-11 1 -1 1.820481e-11 1250.9508 -817.8142)" class="st1" width="29.2" height="87.6"/>
		<line class="st1" x1="990.6" y1="202" x2="1019.8" y2="231.2"/>
		<line class="st1" x1="990.6" y1="231.2" x2="1019.8" y2="202"/>
		<line class="st1" x1="1019.7" y1="202" x2="1049" y2="231.2"/>
		<line class="st1" x1="1019.7" y1="231.2" x2="1049" y2="202"/>
		<line class="st1" x1="1048.9" y1="202" x2="1078.2" y2="231.2"/>
		<line class="st1" x1="1048.9" y1="231.2" x2="1078.2" y2="202"/>
	</g>
	<polygon class="st3" points="824.6,298.9 840.5,298.9 845,282.5 842.3,274.2 822.8,274.2 820.1,282.5 	"/>
	<circle class="st4" cx="832.6" cy="282" r="3.5"/>
	<line class="st5" x1="839.5" y1="274.2" x2="839.5" y2="232"/>
	<line class="st5" x1="825.4" y1="274.2" x2="825.4" y2="232"/>
	<g>
		<polygon class="st1" points="950.7,231.2 922.3,202 834,202 804.8,231.2 		"/>
		<line class="st1" x1="819.4" y1="216.6" x2="834" y2="231.2"/>
		<line class="st1" x1="804.8" y1="231.2" x2="834" y2="202"/>
		<line class="st1" x1="833.9" y1="202" x2="863.2" y2="231.2"/>
		<line class="st1" x1="833.9" y1="231.2" x2="863.2" y2="202"/>
		<line class="st1" x1="863.1" y1="202" x2="892.4" y2="231.2"/>
		<line class="st1" x1="863.1" y1="231.2" x2="892.4" y2="202"/>
		<line class="st1" x1="892.3" y1="202" x2="921.5" y2="231.2"/>
		<line class="st1" x1="892.3" y1="231.2" x2="921.5" y2="202"/>
		<line class="st1" x1="921.5" y1="202" x2="950.7" y2="231.2"/>
		<line class="st1" x1="921.5" y1="231.2" x2="936.1" y2="216.6"/>
	</g>
	<path class="st3" d="M943,402.6h55.8v-8c0-3.2-2.6-5.9-5.9-5.9h-44.1c-3.2,0-5.9,2.6-5.9,5.9V402.6z"/>
	<path class="st6" d="M931.7,423.2h77.8v-13.1c0-4.1-3.3-7.4-7.4-7.4h-62.9c-4.1,0-7.4,3.3-7.4,7.4V423.2z"/>
	<line class="st7" x1="970.1" y1="121.1" x2="1078.2" y2="204.6"/>
	<line class="st7" x1="970.1" y1="121.1" x2="840.2" y2="202"/>
	<polygon class="st8" points="992.1,194.5 992.1,194.5 992.1,194.5 992.1,194.5 	"/>
	
		<rect x="949.6" y="193.9" transform="matrix(-1 4.488087e-11 -4.488087e-11 -1 1940.1586 426.2571)" class="st4" width="40.9" height="38.5"/>
	<g>
		
			<rect x="951.4" y="154.5" transform="matrix(-1 4.488087e-11 -4.488087e-11 -1 1941.2672 350.4094)" class="st1" width="38.5" height="41.3"/>
		<line class="st1" x1="989.9" y1="156" x2="951.2" y2="194.7"/>
		<line class="st1" x1="951.2" y1="156" x2="989.9" y2="194.7"/>
	</g>
	<line class="st9" x1="999.9" y1="154.3" x2="942" y2="154.3"/>
	<polyline class="st10" points="989.3,152.9 970.1,121.1 950.9,152.9 	"/>
</g>
<path class="st11" d="M430.8,290.1h20.7v24c0,2.1-0.7,4-2.1,5.5c-1.4,1.6-3.5,2.3-6.1,2.3h-12.4v46.2h-37.2v-46.2h-80.8
	c-2.7,0-5.1-0.8-7.2-2.5c-2.2-1.7-3.5-3.7-4.1-6.2l-4.4-21.1L390,167.3h40.8V290.1z M393.5,237.7c0-3.2,0.1-6.7,0.3-10.4
	c0.2-3.7,0.6-7.6,1-11.5l-53.1,74.3h51.7V237.7z"/>
<g>
	<path class="st11" d="M476.5,134.2v8.6h-19.8V154h15.1v8.3h-15.1v11.5h19.8v8.6h-31v-48.1H476.5z"/>
	<path class="st11" d="M497.3,164.5v17.8h-11.2v-48.1h15.7c3.5,0,6.4,0.4,8.9,1.1c2.5,0.7,4.5,1.7,6,3c1.6,1.3,2.7,2.8,3.4,4.5
		c0.7,1.7,1.1,3.6,1.1,5.7c0,1.6-0.2,3-0.6,4.4c-0.4,1.4-1,2.7-1.9,3.8c-0.8,1.2-1.8,2.2-3,3.2c-1.2,0.9-2.6,1.7-4.1,2.3
		c0.7,0.4,1.4,0.8,2.1,1.4c0.6,0.6,1.2,1.2,1.7,2l10.2,16.7h-10.1c-1.9,0-3.2-0.7-4-2.1l-8-14c-0.4-0.6-0.8-1.1-1.2-1.3
		c-0.5-0.3-1.1-0.4-2-0.4H497.3z M497.3,156.8h4.5c1.5,0,2.8-0.2,3.9-0.6c1.1-0.4,1.9-0.9,2.6-1.6c0.7-0.7,1.2-1.5,1.5-2.4
		c0.3-0.9,0.5-1.9,0.5-3c0-2.1-0.7-3.8-2.1-5c-1.4-1.2-3.5-1.8-6.4-1.8h-4.5V156.8z"/>
	<path class="st11" d="M544.5,164.5v17.8h-11.2v-48.1H549c3.5,0,6.4,0.4,8.9,1.1c2.5,0.7,4.5,1.7,6,3c1.6,1.3,2.7,2.8,3.4,4.5
		c0.7,1.7,1.1,3.6,1.1,5.7c0,1.6-0.2,3-0.6,4.4c-0.4,1.4-1,2.7-1.9,3.8c-0.8,1.2-1.8,2.2-3,3.2s-2.6,1.7-4.1,2.3
		c0.7,0.4,1.4,0.8,2.1,1.4c0.6,0.6,1.2,1.2,1.7,2l10.2,16.7h-10.1c-1.9,0-3.2-0.7-4-2.1l-8-14c-0.4-0.6-0.8-1.1-1.2-1.3
		c-0.5-0.3-1.1-0.4-2-0.4H544.5z M544.5,156.8h4.5c1.5,0,2.8-0.2,3.9-0.6c1.1-0.4,1.9-0.9,2.6-1.6c0.7-0.7,1.2-1.5,1.5-2.4
		c0.3-0.9,0.5-1.9,0.5-3c0-2.1-0.7-3.8-2.1-5c-1.4-1.2-3.5-1.8-6.4-1.8h-4.5V156.8z"/>
	<path class="st11" d="M626.5,158.2c0,3.5-0.6,6.7-1.8,9.7c-1.2,3-2.9,5.6-5.1,7.8s-4.8,3.9-7.9,5.2c-3.1,1.3-6.5,1.9-10.2,1.9
		s-7.2-0.6-10.2-1.9c-3.1-1.3-5.7-3-7.9-5.2s-3.9-4.8-5.1-7.8c-1.2-3-1.8-6.2-1.8-9.7c0-3.5,0.6-6.7,1.8-9.7c1.2-3,2.9-5.6,5.1-7.8
		c2.2-2.2,4.8-3.9,7.9-5.2c3.1-1.3,6.5-1.9,10.2-1.9s7.2,0.6,10.2,1.9c3.1,1.3,5.7,3,7.9,5.2c2.2,2.2,3.9,4.8,5.1,7.8
		C625.9,151.5,626.5,154.7,626.5,158.2z M615,158.2c0-2.4-0.3-4.5-0.9-6.4c-0.6-1.9-1.5-3.5-2.7-4.8s-2.6-2.3-4.2-3
		c-1.7-0.7-3.6-1.1-5.7-1.1c-2.2,0-4.1,0.4-5.8,1.1s-3.1,1.7-4.3,3s-2,2.9-2.7,4.8c-0.6,1.9-0.9,4-0.9,6.4c0,2.4,0.3,4.6,0.9,6.5
		c0.6,1.9,1.5,3.5,2.7,4.8s2.6,2.3,4.3,3c1.7,0.7,3.6,1,5.8,1c2.1,0,4-0.3,5.7-1c1.7-0.7,3.1-1.7,4.2-3s2-2.9,2.7-4.8
		C614.7,162.7,615,160.6,615,158.2z"/>
	<path class="st11" d="M646.3,164.5v17.8h-11.2v-48.1h15.7c3.5,0,6.4,0.4,8.9,1.1c2.5,0.7,4.5,1.7,6,3c1.6,1.3,2.7,2.8,3.4,4.5
		c0.7,1.7,1.1,3.6,1.1,5.7c0,1.6-0.2,3-0.6,4.4c-0.4,1.4-1,2.7-1.9,3.8c-0.8,1.2-1.8,2.2-3,3.2s-2.6,1.7-4.1,2.3
		c0.7,0.4,1.4,0.8,2.1,1.4s1.2,1.2,1.7,2l10.2,16.7h-10.1c-1.9,0-3.2-0.7-4-2.1l-8-14c-0.4-0.6-0.8-1.1-1.2-1.3s-1.1-0.4-2-0.4
		H646.3z M646.3,156.8h4.5c1.5,0,2.8-0.2,3.9-0.6c1.1-0.4,1.9-0.9,2.6-1.6c0.7-0.7,1.2-1.5,1.5-2.4c0.3-0.9,0.5-1.9,0.5-3
		c0-2.1-0.7-3.8-2.1-5c-1.4-1.2-3.5-1.8-6.4-1.8h-4.5V156.8z"/>
</g>
<g>
	<path class="st3" d="M318.7,421.8h-3.2v-41.1c0-0.9,0.7-1.6,1.6-1.6l0,0c0.9,0,1.6,0.7,1.6,1.6V421.8z"/>
	<path class="st3" d="M368.7,422h-3.2v-41.1c0-0.9,0.7-1.6,1.6-1.6l0,0c0.9,0,1.6,0.7,1.6,1.6V422z"/>
	<rect x="309.7" y="376.9" class="st4" width="64.8" height="21.6"/>
	<path class="st6" d="M319.8,422h-5.2c-0.9,0-1.6-0.7-1.6-1.6v0c0-0.9,0.7-1.6,1.6-1.6h5.2c0.9,0,1.6,0.7,1.6,1.6v0
		C321.4,421.3,320.7,422,319.8,422z"/>
	<path class="st6" d="M369.7,422h-5.2c-0.9,0-1.6-0.7-1.6-1.6v0c0-0.9,0.7-1.6,1.6-1.6h5.2c0.9,0,1.6,0.7,1.6,1.6v0
		C371.3,421.3,370.6,422,369.7,422z"/>
	<rect x="318.7" y="408.2" class="st6" width="46.7" height="3.1"/>
	<g>
		<defs>
			<polyline id="SVGID_1_" points="309.7,389.6 309.7,376.9 374.5,376.9 374.5,398.5 309.7,398.5 309.7,389.6 			"/>
		</defs>
		<clipPath id="SVGID_2_">
			<use xlink:href="#SVGID_1_"  style="overflow:visible;"/>
		</clipPath>
		
			<rect x="304.9" y="363.5" transform="matrix(0.7071 0.7071 -0.7071 0.7071 362.3434 -106.4973)" class="st12" width="9.7" height="41.3"/>
		
			<rect x="329.6" y="367.1" transform="matrix(0.7071 0.7071 -0.7071 0.7071 372.0745 -122.8964)" class="st12" width="9.7" height="41.3"/>
		
			<rect x="356.4" y="368.3" transform="matrix(0.7071 0.7071 -0.7071 0.7071 380.8358 -141.4895)" class="st12" width="9.7" height="41.3"/>
	</g>
</g>
<g>
	<g>
		<rect x="244.6" y="203.2" class="st13" width="36.9" height="184.5"/>
		<line class="st13" x1="244.6" y1="203.2" x2="281.6" y2="240.2"/>
		<line class="st13" x1="281.6" y1="203.2" x2="244.6" y2="240.2"/>
		<line class="st13" x1="244.6" y1="240.1" x2="281.6" y2="277.1"/>
		<line class="st13" x1="281.6" y1="240.1" x2="244.6" y2="277.1"/>
		<line class="st13" x1="244.6" y1="277" x2="281.6" y2="313.9"/>
		<line class="st13" x1="281.6" y1="277" x2="244.6" y2="313.9"/>
		<line class="st13" x1="244.6" y1="313.8" x2="281.6" y2="350.8"/>
		<line class="st13" x1="281.6" y1="313.8" x2="244.6" y2="350.8"/>
		<line class="st13" x1="244.6" y1="350.7" x2="281.6" y2="387.7"/>
		<line class="st13" x1="281.6" y1="350.7" x2="244.6" y2="387.7"/>
	</g>
	<g>
		<rect x="244.6" y="19.9" class="st13" width="36.9" height="184.5"/>
		<line class="st13" x1="244.6" y1="19.9" x2="281.6" y2="56.9"/>
		<line class="st13" x1="281.6" y1="19.9" x2="244.6" y2="56.9"/>
		<line class="st13" x1="244.6" y1="56.8" x2="281.6" y2="93.8"/>
		<line class="st13" x1="281.6" y1="56.8" x2="244.6" y2="93.8"/>
		<line class="st13" x1="244.6" y1="93.6" x2="281.6" y2="130.6"/>
		<line class="st13" x1="281.6" y1="93.6" x2="244.6" y2="130.6"/>
		<line class="st13" x1="244.6" y1="130.5" x2="281.6" y2="167.5"/>
		<line class="st13" x1="281.6" y1="130.5" x2="244.6" y2="167.5"/>
		<line class="st13" x1="244.6" y1="167.4" x2="281.6" y2="204.4"/>
		<line class="st13" x1="281.6" y1="167.4" x2="244.6" y2="204.4"/>
	</g>
	<path class="st14" d="M387.5,181.3c0,0.2,0.2,0.2,0.2,0.3c0,4.4,3.6,7.8,8,7.8c4.4,0,8-3.6,8-7.9s-4-7.9-8.3-7.9c-0.1,0,1,0-0.7,0
		v-8"/>
	<g>
		
			<rect x="188.1" y="44.8" transform="matrix(2.691873e-11 1 -1 2.691873e-11 288.8087 -115.3045)" class="st13" width="27.9" height="83.8"/>
		<line class="st13" x1="244" y1="72.8" x2="216" y2="100.8"/>
		<line class="st13" x1="244" y1="100.8" x2="216" y2="72.8"/>
		<line class="st13" x1="216.1" y1="72.8" x2="188.1" y2="100.8"/>
		<line class="st13" x1="216.1" y1="100.8" x2="188.1" y2="72.8"/>
		<line class="st13" x1="188.1" y1="72.8" x2="160.2" y2="100.8"/>
		<line class="st13" x1="188.1" y1="100.8" x2="160.2" y2="72.8"/>
	</g>
	<polygon class="st3" points="402.7,165.5 387.5,165.5 383.2,149.8 385.8,141.9 404.4,141.9 407.1,149.8 	"/>
	<circle class="st4" cx="395.1" cy="149.3" r="3.3"/>
	<line class="st15" x1="388.5" y1="141.9" x2="388.5" y2="101.5"/>
	<line class="st15" x1="402" y1="141.9" x2="402" y2="101.5"/>
	<g>
		<polygon class="st13" points="282.1,100.7 309.3,72.8 393.7,72.8 421.7,100.7 		"/>
		<line class="st13" x1="407.7" y1="86.8" x2="393.7" y2="100.8"/>
		<line class="st13" x1="421.7" y1="100.8" x2="393.7" y2="72.8"/>
		<line class="st13" x1="393.8" y1="72.8" x2="365.8" y2="100.8"/>
		<line class="st13" x1="393.8" y1="100.8" x2="365.8" y2="72.8"/>
		<line class="st13" x1="365.9" y1="72.8" x2="337.9" y2="100.8"/>
		<line class="st13" x1="365.9" y1="100.8" x2="337.9" y2="72.8"/>
		<line class="st13" x1="338" y1="72.8" x2="310" y2="100.8"/>
		<line class="st13" x1="338" y1="100.8" x2="310" y2="72.8"/>
		<line class="st13" x1="310.1" y1="72.8" x2="282.1" y2="100.8"/>
		<line class="st13" x1="310.1" y1="100.8" x2="296" y2="86.8"/>
	</g>
	<path class="st3" d="M289.5,401h-53.4v-7.7c0-3.1,2.5-5.6,5.6-5.6h42.2c3.1,0,5.6,2.5,5.6,5.6V401z"/>
	<path class="st6" d="M300.3,420.7h-74.4v-12.5c0-3.9,3.2-7.1,7.1-7.1h60.2c3.9,0,7.1,3.2,7.1,7.1V420.7z"/>
	<line class="st16" x1="263.5" y1="5.5" x2="160.2" y2="75.3"/>
	<line class="st16" x1="263.5" y1="5.5" x2="387.8" y2="72.8"/>
	<polygon class="st17" points="242.5,201.9 242.5,201.9 242.5,201.9 242.5,201.9 	"/>
	<rect x="244" y="201.3" class="st4" width="39.1" height="36.9"/>
</g>
<g>
	
		<rect x="128.3" y="394.4" transform="matrix(-1 -4.484336e-11 4.484336e-11 -1 295.8074 794.5336)" class="st18" width="39.3" height="5.7"/>
	<path class="st4" d="M168.7,394.4l32.8-73.8c0.4-1,0-2.2-1-2.6l-4.1-1.8c-0.9-0.4-2-0.1-2.5,0.7L144,394.4H168.7z"/>
	<path class="st18" d="M129,372.9l54.3,13.1l-4.2-38.4c-0.6-6.5-6-11.4-12.5-11.4h-21.5c-6.4,0-11.8,4.8-12.5,11.2L129,372.9z"/>
	<g>
		<path class="st19" d="M147.6,369.5l-9.8-1.9c-0.7-0.1-1.2-0.8-1.1-1.5l2.5-14c0.5-4.6,1.9-8,6.5-8h2.3c0.7,0,1.2,0.5,1.2,1.2v22.9
			C149.2,369,148.4,369.7,147.6,369.5z"/>
		<path class="st19" d="M154.9,345.3c0-0.6,0.5-1.2,1.2-1.2h7.6c4.7,0,8.6,3.5,9,8.2l2.3,21.1c0.1,0.8-0.6,1.4-1.4,1.2l-17.5-3.5
			c-0.7-0.1-1.2-0.7-1.2-1.5V345.3z"/>
	</g>
	<path class="st4" d="M133,368.6v4.9l48.5,10.3c1,0.2,1.7,1.1,1.7,2.2v6.2c0,1.2-1,2.2-2.2,2.2h-48h-16.5c-1.2,0-2.2-1-2.2-2.2
		v-22.7v-0.9c0-1.4,1.2-2.6,2.6-2.6h13.4C131.8,366,133,367.2,133,368.6z"/>
	<path class="st20" d="M118.3,372.7h9.6c0.6,0,1.1-0.5,1.1-1.1l0,0c0-0.6-0.5-1.1-1.1-1.1h-9.6c-0.6,0-1.1,0.5-1.1,1.1l0,0
		C117.3,372.2,117.8,372.7,118.3,372.7z"/>
	<path class="st20" d="M118.3,376.8h9.6c0.6,0,1.1-0.5,1.1-1.1l0,0c0-0.6-0.5-1.1-1.1-1.1h-9.6c-0.6,0-1.1,0.5-1.1,1.1l0,0
		C117.3,376.3,117.8,376.8,118.3,376.8z"/>
	<path class="st20" d="M118.3,380.9h9.6c0.6,0,1.1-0.5,1.1-1.1l0,0c0-0.6-0.5-1.1-1.1-1.1h-9.6c-0.6,0-1.1,0.5-1.1,1.1l0,0
		C117.3,380.5,117.8,380.9,118.3,380.9z"/>
	<path class="st20" d="M118.3,385.1h9.6c0.6,0,1.1-0.5,1.1-1.1l0,0c0-0.6-0.5-1.1-1.1-1.1h-9.6c-0.6,0-1.1,0.5-1.1,1.1l0,0
		C117.3,384.6,117.8,385.1,118.3,385.1z"/>
	<path class="st18" d="M115.8,419.7H180c5.4,0,9.8-4.4,9.8-9.8l0,0c0-5.4-4.4-9.8-9.8-9.8h-64.2c-5.4,0-9.8,4.4-9.8,9.8l0,0
		C106.1,415.3,110.4,419.7,115.8,419.7z"/>
	<g>
		<path class="st21" d="M115.8,419.7H180c5.4,0,9.8-4.4,9.8-9.8s-4.4-9.8-9.8-9.8h-64.2c-5.4,0-9.8,4.4-9.8,9.8
			S110.4,419.7,115.8,419.7z"/>
	</g>
	<g>
		<circle class="st22" cx="178.5" cy="409.9" r="6.6"/>
		<circle class="st20" cx="178.5" cy="409.9" r="3.2"/>
	</g>
	<g>
		<circle class="st22" cx="163.2" cy="409.9" r="6.6"/>
		<circle class="st20" cx="163.2" cy="409.9" r="3.2"/>
	</g>
	<g>
		<circle class="st22" cx="147.9" cy="409.9" r="6.6"/>
		<circle class="st20" cx="147.9" cy="409.9" r="3.2"/>
	</g>
	<g>
		<circle class="st22" cx="132.6" cy="409.9" r="6.6"/>
		<circle class="st20" cx="132.6" cy="409.9" r="3.2"/>
	</g>
	<g>
		<circle class="st22" cx="117.3" cy="409.9" r="6.6"/>
		<circle class="st20" cx="117.3" cy="409.9" r="3.2"/>
	</g>
	<path class="st18" d="M218.8,371.5l2.5-2.2c2.8-2.5,3.1-6.8,0.6-9.6l-7.2-8.2c-1.4-1.6-1.2-4,0.3-5.3l7.3-6.4
		c1.6-1.4,4-1.2,5.3,0.3l5.7,6.5c4.7,5.3,4.1,13.4-1.2,18l-3.6,3.1l-7.3,6.4c-1.3,1.2-3.4,0-3.1-1.8v0
		C218.2,372.2,218.4,371.8,218.8,371.5z"/>
	<path class="st4" d="M215.5,345.8l6.8-6l-23.1-25.1c-0.8-0.9-2.2-1-3.1-0.2l-2.4,2.1c-0.9,0.8-1,2.1-0.2,3.1L215.5,345.8z"/>
	<circle class="st23" cx="198.2" cy="319.4" r="2.1"/>
</g>
<g>
	<path class="st18" d="M791.1,403.1h134c1,0,1.8-0.8,1.8-1.8v-4.8c0-1-0.8-1.8-1.8-1.8h-134c-1,0-1.8,0.8-1.8,1.8v4.8
		C789.3,402.3,790.1,403.1,791.1,403.1z"/>
	<polygon class="st18" points="794.7,394.9 808.3,366.3 845.1,395.8 	"/>
	<circle class="st18" cx="816.6" cy="403.1" r="20.9"/>
	<circle class="st22" cx="816.6" cy="403.1" r="13.5"/>
	<circle class="st20" cx="816.6" cy="403.1" r="8.6"/>
	<rect x="870.8" y="376.5" class="st4" width="53.8" height="18.2"/>
	<circle class="st18" cx="894.2" cy="403.1" r="20.9"/>
	<circle class="st22" cx="894.2" cy="403.1" r="13.5"/>
	<circle class="st20" cx="894.2" cy="403.1" r="8.6"/>
	<path class="st4" d="M870.8,376.5h53.8l-11.3-28.2c-1-2.5-3.5-4.2-6.2-4.2h-23.7c-3.1,0-5.8,2.2-6.5,5.2L870.8,376.5z"/>
	<path class="st19" d="M881.9,371.6H913c1.6,0,2.7-1.6,2.1-3.2l-6.6-16.5c-0.7-1.8-2.4-2.9-4.3-2.9h-16.5c-2.2,0-4,1.5-4.5,3.6
		l-3.7,16.1C879.3,370.2,880.4,371.6,881.9,371.6z"/>
	<path class="st18" d="M919.9,387.5L919.9,387.5c-1.1,0-1.9-0.9-1.9-1.9v-5c0-1.1,0.9-1.9,1.9-1.9l0,0c1.1,0,1.9,0.9,1.9,1.9v5
		C921.8,386.7,920.9,387.5,919.9,387.5z"/>
	<polygon class="st4" points="870.4,356.5 863.5,395.5 845.1,395.5 792.5,353.5 	"/>
	<g>
		<defs>
			<polygon id="SVGID_3_" points="870.4,356.5 863.5,395.5 845.1,395.5 792.5,353.5 			"/>
		</defs>
		<clipPath id="SVGID_4_">
			<use xlink:href="#SVGID_3_"  style="overflow:visible;"/>
		</clipPath>
		
			<rect x="789.5" y="359.1" transform="matrix(-0.3287 0.9444 -0.9444 -0.3287 1413.8098 -284.3685)" class="st24" width="37" height="2.4"/>
		
			<rect x="804.7" y="362.3" transform="matrix(-0.3287 0.9444 -0.9444 -0.3287 1437.1437 -294.4645)" class="st24" width="37" height="2.4"/>
		
			<rect x="815.3" y="369.1" transform="matrix(-0.3287 0.9444 -0.9444 -0.3287 1462.1926 -298.663)" class="st24" width="43.8" height="2.4"/>
		
			<rect x="830.7" y="372" transform="matrix(-0.3287 0.9444 -0.9444 -0.3287 1485.3632 -309.3209)" class="st24" width="43.8" height="2.4"/>
		
			<rect x="791" y="354.2" transform="matrix(0.9989 4.590292e-02 -4.590292e-02 0.9989 17.191 -37.7945)" class="st24" width="81.1" height="2.4"/>
	</g>
	<polygon class="st4" points="872.3,357 791.3,353.7 791.6,347.6 872.6,350.9 	"/>
	<rect x="890.4" y="348.3" class="st4" width="5.1" height="23.5"/>
</g>
<g>
	<path class="st4" d="M1029.1,412.6h-35.9l13.8-42c1.4-4.2,7-4.2,8.4,0L1029.1,412.6z"/>
	<path class="st3" d="M1031.8,422h-41.4c-1.6,0-2.9-1.3-2.9-2.9v-0.7c0-3.2,2.6-5.7,5.7-5.7h35.8c3.2,0,5.7,2.6,5.7,5.7v0.7
		C1034.7,420.7,1033.4,422,1031.8,422z"/>
	<g>
		<defs>
			<path id="SVGID_5_" d="M1029.1,412.6h-35.9l13.8-42c1.4-4.2,7-4.2,8.4,0L1029.1,412.6z"/>
		</defs>
		<clipPath id="SVGID_6_">
			<use xlink:href="#SVGID_5_"  style="overflow:visible;"/>
		</clipPath>
		<rect x="990.7" y="395.9" class="st25" width="40.9" height="8.5"/>
		<rect x="990.7" y="378.8" class="st25" width="40.9" height="8.5"/>
	</g>
</g>
<g>
	<path class="st6" d="M471,422.5h-4.5v-56.9c0-1.2,1-2.2,2.2-2.2l0,0c1.2,0,2.2,1,2.2,2.2V422.5z"/>
	<path class="st3" d="M491,364.1h-43.2c-4.5,0-7.3-4.9-5-8.8l21.5-36c2.2-3.8,7.7-3.8,10,0l21.7,36
		C498.3,359.2,495.5,364.1,491,364.1z"/>
	<path class="st4" d="M489.5,360.4h-40.2c-2.1,0-3.5-2.3-2.4-4.2l20-33.5c1.1-1.8,3.7-1.8,4.7,0l20.2,33.5
		C493,358,491.7,360.4,489.5,360.4z"/>
	<g>
		<path class="st19" d="M466.8,353.3c0-1.3,0.9-2.3,2.2-2.3c1.3,0,2.2,0.9,2.2,2.3c0,1.3-0.8,2.3-2.2,2.3
			C467.7,355.6,466.8,354.6,466.8,353.3z M467.7,348.1l-0.5-17.5h3.5l-0.5,17.5H467.7z"/>
	</g>
</g>
<g>
	<path class="st11" d="M553.3,217.2c10.1,0,19.1,1.5,27.2,4.4c8.1,2.9,14.9,7,20.6,12.2c5.7,5.2,10,11.4,13.1,18.7
		c3,7.2,4.5,15.2,4.5,23.8c0,7.5-1,14.4-3.1,20.7c-2.1,6.3-5,12.4-8.6,18.1s-7.9,11.3-12.7,16.6c-4.8,5.4-9.9,10.8-15.3,16.3
		l-39.8,40.8c5.1-1.5,10.2-2.7,15.2-3.6c5-0.9,9.7-1.3,14-1.3h38c4.7,0,8.3,1.3,11,3.8c2.7,2.6,4.1,5.9,4.1,10.1v25.2H478.3v-14
		c0-2.7,0.6-5.6,1.7-8.7s3.1-5.9,5.9-8.4l58.7-59.1c5-5,9.4-9.8,13.1-14.4c3.7-4.6,6.8-9.1,9.2-13.5c2.4-4.4,4.2-8.9,5.5-13.3
		c1.2-4.4,1.8-9.1,1.8-14c0-8.1-1.9-14.3-5.8-18.7c-3.9-4.3-9.8-6.5-17.7-6.5c-3.3,0-6.2,0.5-8.9,1.4c-2.7,0.9-5.1,2.2-7.3,3.8
		c-2.1,1.6-4,3.4-5.5,5.6c-1.5,2.1-2.8,4.5-3.7,7c-1.5,4.2-3.4,7.2-5.7,9.1c-2.3,1.9-5.4,2.8-9.3,2.8c-0.9,0-1.9,0-3-0.1
		c-1.1-0.1-2.2-0.2-3.3-0.4l-22.9-4.1c1.5-10.2,4.4-19,8.6-26.6c4.2-7.5,9.5-13.8,15.8-18.9c6.3-5,13.5-8.8,21.6-11.3
		C535.2,218.4,543.9,217.2,553.3,217.2z"/>
	<path class="st11" d="M702.8,343.7c-6.6,0-13.2-1.2-19.9-3.6c-6.6-2.4-12.6-6-18-10.8c-5.4-4.8-9.7-10.9-13.1-18.3
		c-3.4-7.4-5-16.1-5-26.1c0-9.2,1.7-17.9,5.1-26.1c3.4-8.2,8.2-15.4,14.5-21.5c6.3-6.2,13.8-11,22.6-14.6c8.8-3.6,18.5-5.4,29.4-5.4
		c11,0,20.8,1.7,29.5,5c8.7,3.4,16,8.1,22,14.1c6,6.1,10.6,13.3,13.8,21.6c3.2,8.3,4.8,17.5,4.8,27.6c0,6.7-0.5,13-1.6,18.9
		c-1.1,5.9-2.6,11.5-4.5,16.8c-1.9,5.4-4.2,10.5-6.9,15.4c-2.7,4.9-5.7,9.7-9.1,14.5l-43.9,62.3c-1.9,2.7-4.8,5-8.8,6.8
		c-4,1.9-8.5,2.8-13.6,2.8h-40l64.6-77.2c1.3-1.6,2.5-3.1,3.7-4.5c1.2-1.4,2.3-2.9,3.4-4.4c-4.2,2.2-8.8,3.9-13.7,5
		C713.4,343.1,708.2,343.7,702.8,343.7z M747.3,281.6c0-4.9-0.7-9.3-2.2-13.1c-1.4-3.8-3.4-6.9-6-9.4c-2.6-2.5-5.7-4.4-9.3-5.7
		c-3.6-1.3-7.6-2-11.9-2c-4.4,0-8.3,0.8-11.7,2.3c-3.4,1.5-6.3,3.7-8.7,6.4c-2.4,2.7-4.2,5.9-5.5,9.6c-1.3,3.7-1.9,7.7-1.9,12
		c0,20.3,9.4,30.5,28.2,30.5c9.2,0,16.3-2.8,21.3-8.3C744.8,298.2,747.3,290.8,747.3,281.6z"/>
</g>
</svg>
